<?xml version="1.0" encoding="utf-8"?>
<!-- Generator: Adobe Illustrator 17.0.0, SVG Export Plug-In . SVG Version: 6.00 Build 0)  -->
<!DOCTYPE svg PUBLIC "-//W3C//DTD SVG 1.1//EN" "http://www.w3.org/Graphics/SVG/1.1/DTD/svg11.dtd">
<svg version="1.1" id="Layer_1" xmlns="http://www.w3.org/2000/svg" xmlns:xlink="http://www.w3.org/1999/xlink" x="0px" y="0px"
	 width="18.006px" height="18px" viewBox="0 0 18.006 18" enable-background="new 0 0 18.006 18" xml:space="preserve">
<g>
	<path fill="#A1A0A0" d="M2.426,2.358C3.991,0.837,6.072,0,8.285,0c0.363,0,0.656,0.286,0.656,0.638
		c0,0.352-0.294,0.638-0.656,0.638c-1.862,0-3.613,0.705-4.93,1.985C2.038,4.54,1.313,6.241,1.313,8.051
		c0,0.353-0.294,0.637-0.656,0.637S0,8.404,0,8.051C0,5.901,0.861,3.879,2.426,2.358z"/>
	<path fill="#A1A0A0" d="M5.127,8.051c0,0.353-0.294,0.638-0.657,0.637c-0.363,0-0.656-0.285-0.656-0.637
		c0-2.395,2.006-4.344,4.471-4.345c0,0,0,0,0,0c0.363,0,0.656,0.286,0.656,0.638c0,0.352-0.294,0.638-0.656,0.638
		C6.544,4.983,5.127,6.359,5.127,8.051z"/>
	<path fill="#A1A0A0" d="M6.579,11.304c1.001-0.051,1.511,0.673,1.755,1.02c0.205,0.291,0.128,0.688-0.171,0.887
		c-0.299,0.198-0.708,0.124-0.913-0.167c-0.289-0.41-0.42-0.475-0.597-0.467c-0.568,0.065-2.806,1.658-3.03,2.157
		c-0.056,0.147-0.054,0.29,0.006,0.465c0.235,0.678,0.624,1.154,1.125,1.377c0.476,0.212,1.059,0.193,1.687-0.056
		c2.344-0.929,4.391-2.224,6.086-3.851c0.001-0.001,0.001-0.001,0.002-0.002c1.671-1.645,3.001-3.633,3.955-5.907
		c0.255-0.61,0.276-1.178,0.057-1.64c-0.23-0.487-0.72-0.864-1.416-1.092c-0.181-0.059-0.328-0.061-0.478-0.007
		c-0.515,0.219-2.154,2.393-2.22,2.939c-0.01,0.179,0.057,0.306,0.479,0.587c0.3,0.198,0.376,0.595,0.172,0.886
		c-0.205,0.291-0.613,0.366-0.913,0.166c-0.358-0.237-1.102-0.731-1.05-1.706c0.057-1.019,2.097-3.718,3.072-4.067
		c0.433-0.157,0.889-0.16,1.356-0.008c1.049,0.343,1.807,0.956,2.192,1.771c0.373,0.79,0.361,1.707-0.035,2.653
		c-1.021,2.433-2.449,4.563-4.244,6.329c-0.004,0.004-0.009,0.009-0.013,0.013c-1.816,1.741-4.005,3.127-6.506,4.117
		C6.436,17.901,5.943,18,5.471,18c-0.444,0-0.87-0.087-1.264-0.263c-0.839-0.373-1.468-1.11-1.822-2.13
		c-0.156-0.453-0.153-0.896,0.007-1.315C2.752,13.342,5.529,11.359,6.579,11.304z"/>
</g>
</svg>
