<?xml version="1.0" encoding="utf-8"?>
<!-- Generator: Adobe Illustrator 17.0.0, SVG Export Plug-In . SVG Version: 6.00 Build 0)  -->
<!DOCTYPE svg PUBLIC "-//W3C//DTD SVG 1.1//EN" "http://www.w3.org/Graphics/SVG/1.1/DTD/svg11.dtd">
<svg version="1.1" id="Layer_1" xmlns="http://www.w3.org/2000/svg" xmlns:xlink="http://www.w3.org/1999/xlink" x="0px" y="0px"
	 width="20px" height="18px" viewBox="0 0 20 18" enable-background="new 0 0 20 18" xml:space="preserve">
<path fill="#A1A0A0" d="M18.566,12.809h-0.626v-2.62c0-1.246-1.181-2.338-2.528-2.338h-4.885V5.604h1.037
	c0.789-0.001,1.432-0.647,1.434-1.438V1.438C12.997,0.647,12.354,0.002,11.565,0h-3.13C7.646,0.002,7.003,0.647,7.001,1.438v2.727
	c0.002,0.791,0.645,1.437,1.434,1.438h1.037v2.247H4.587c-1.347,0-2.528,1.093-2.528,2.338v2.62H1.434
	C0.644,12.811,0.002,13.456,0,14.247v2.314C0.002,17.353,0.644,17.998,1.434,18H3.74c0.789-0.002,1.432-0.647,1.433-1.438v-2.314
	c-0.001-0.792-0.645-1.437-1.434-1.438H3.115v-2.62c0-0.732,0.777-1.28,1.473-1.28h4.885v3.9H8.847
	c-0.789,0.002-1.432,0.647-1.434,1.438v2.314C7.415,17.353,8.058,17.998,8.847,18h2.307c0.789-0.002,1.432-0.647,1.433-1.438v-2.314
	c-0.002-0.792-0.645-1.437-1.434-1.438h-0.625v-3.9h4.885c0.695,0,1.473,0.547,1.473,1.28v2.62H16.26
	c-0.789,0.002-1.432,0.647-1.434,1.438v2.314c0.002,0.792,0.644,1.437,1.434,1.438h2.307c0.789-0.002,1.432-0.647,1.433-1.438
	v-2.314C19.998,13.456,19.355,12.811,18.566,12.809z M18.945,14.247v2.314c0,0.209-0.17,0.379-0.378,0.379H16.26
	c-0.209,0-0.378-0.17-0.378-0.379v-2.314c0-0.209,0.17-0.379,0.378-0.379h2.306C18.775,13.868,18.945,14.038,18.945,14.247z
	 M8.469,14.247c0-0.209,0.17-0.379,0.378-0.379h2.306c0.209,0,0.378,0.17,0.378,0.379v2.314c0,0.209-0.17,0.379-0.378,0.379H8.847
	c-0.208,0-0.378-0.17-0.378-0.379V14.247z M11.565,4.545h-3.13c-0.209,0-0.378-0.17-0.378-0.38V1.438c0-0.209,0.17-0.38,0.378-0.38
	h3.13c0.209,0,0.378,0.171,0.378,0.38v2.727C11.943,4.375,11.774,4.545,11.565,4.545z M4.118,16.562c0,0.209-0.17,0.379-0.378,0.379
	H1.434c-0.209,0-0.378-0.17-0.378-0.379v-2.314c0-0.209,0.17-0.379,0.378-0.379H3.74c0.209,0,0.378,0.17,0.378,0.379V16.562z"/>
</svg>
