<?xml version="1.0" encoding="utf-8"?>
<!-- Generator: Adobe Illustrator 17.0.0, SVG Export Plug-In . SVG Version: 6.00 Build 0)  -->
<!DOCTYPE svg PUBLIC "-//W3C//DTD SVG 1.1//EN" "http://www.w3.org/Graphics/SVG/1.1/DTD/svg11.dtd">
<svg version="1.1" id="Layer_1" xmlns="http://www.w3.org/2000/svg" xmlns:xlink="http://www.w3.org/1999/xlink" x="0px" y="0px"
	 width="20px" height="13px" viewBox="0 0 20 13" enable-background="new 0 0 20 13" xml:space="preserve">
<g>
	<g>
		<path fill="#A1A0A0" d="M19.991,6.167c-0.008-0.04-0.024-0.079-0.043-0.117c-0.013-0.026-0.026-0.051-0.043-0.076
			c-0.013-0.017-0.016-0.037-0.031-0.054c-1.114-1.255-2.262-2.307-3.411-3.126c-0.272-0.193-0.671-0.156-0.892,0.084
			c-0.219,0.241-0.177,0.593,0.096,0.787c0.968,0.69,1.939,1.571,2.893,2.606c-2.545,2.761-5.156,4.31-7.766,4.596
			c-0.347,0.038-0.594,0.318-0.551,0.625c0.04,0.284,0.313,0.491,0.628,0.491c0.026,0,0.053-0.001,0.079-0.004
			c3.062-0.336,6.064-2.141,8.923-5.362c0.014-0.016,0.018-0.037,0.031-0.054c0.018-0.025,0.03-0.049,0.044-0.076
			c0.018-0.039,0.034-0.076,0.043-0.117c0.007-0.034,0.008-0.067,0.008-0.101C19.999,6.233,19.998,6.201,19.991,6.167z M14.977,0.08
			c-0.306-0.152-0.692-0.054-0.863,0.216L13.543,1.2c-3.19-1.227-6.49-0.828-9.577,1.173C1.566,3.927,0.158,5.884,0.099,5.966
			C0.086,5.984,0.085,6.003,0.075,6.021C0.06,6.048,0.05,6.075,0.039,6.105C0.025,6.146,0.014,6.185,0.011,6.227
			c-0.001,0.015-0.01,0.028-0.01,0.044c0,0.009,0.01,0.03,0.013,0.044c0.013,0.12,0.067,0.23,0.161,0.321
			c0.674,1.052,3.284,3.864,6.798,4.95l-0.363,0.573c-0.171,0.271-0.061,0.611,0.245,0.762c0.098,0.048,0.203,0.071,0.308,0.071
			c0.222,0,0.438-0.104,0.554-0.287l7.503-11.863C15.392,0.571,15.283,0.231,14.977,0.08z M7.606,10.586
			C4.39,9.681,2.101,7.13,1.402,6.267c0.611-0.751,2.413-2.764,4.99-3.874C5.401,3.233,4.78,4.41,4.78,5.716
			c0,1.88,1.306,3.55,3.214,4.255L7.606,10.586z M8.62,8.984C7.101,8.481,6.049,7.185,6.049,5.716c0-1.927,1.774-3.494,3.956-3.494
			c0.89,0,1.734,0.26,2.425,0.737L8.62,8.984z"/>
	</g>
</g>
</svg>
