<?xml version="1.0" encoding="utf-8"?>
<!-- Generator: Adobe Illustrator 17.0.0, SVG Export Plug-In . SVG Version: 6.00 Build 0)  -->
<!DOCTYPE svg PUBLIC "-//W3C//DTD SVG 1.1//EN" "http://www.w3.org/Graphics/SVG/1.1/DTD/svg11.dtd">
<svg version="1.1" id="Layer_1" xmlns="http://www.w3.org/2000/svg" xmlns:xlink="http://www.w3.org/1999/xlink" x="0px" y="0px"
	 width="18px" height="18px" viewBox="0 0 18 18" enable-background="new 0 0 18 18" xml:space="preserve">
<path fill="#A1A0A0" d="M17.841,17.082l-4.373-4.374c1.173-1.349,1.883-3.109,1.883-5.033C15.351,3.44,11.907,0,7.677,0
	C3.443,0,0.004,3.444,0.004,7.675c0,4.231,3.444,7.675,7.674,7.675c1.923,0,3.683-0.71,5.032-1.883l4.374,4.374
	C17.186,17.944,17.326,18,17.462,18c0.135,0,0.275-0.051,0.379-0.159C18.048,17.633,18.048,17.29,17.841,17.082z M1.077,7.675
	c0-3.639,2.961-6.597,6.596-6.597c3.639,0,6.596,2.961,6.596,6.597c0,3.636-2.957,6.601-6.596,6.601
	C4.038,14.276,1.077,11.315,1.077,7.675z"/>
</svg>
