<?xml version="1.0" encoding="utf-8"?>
<!-- Generator: Adobe Illustrator 17.0.0, SVG Export Plug-In . SVG Version: 6.00 Build 0)  -->
<!DOCTYPE svg PUBLIC "-//W3C//DTD SVG 1.1//EN" "http://www.w3.org/Graphics/SVG/1.1/DTD/svg11.dtd">
<svg version="1.1" id="Layer_1" xmlns="http://www.w3.org/2000/svg" xmlns:xlink="http://www.w3.org/1999/xlink" x="0px" y="0px"
	 width="57px" height="60px" viewBox="0 0 57 60" enable-background="new 0 0 57 60" xml:space="preserve">
<path fill="#FFFFFF" d="M39.498,22.23c-0.899,3.474-2.993,4.262-4.131,4.426c-0.696,1.404-2.207,4.233-3.721,5.66
	c-0.61,0.576-1.403,1.061-2.356,1.444c-1.215,0.487-2.499,0.734-3.814,0.734c-1.315,0-2.599-0.247-3.814-0.734
	c-0.954-0.383-1.746-0.868-2.357-1.444c-1.513-1.427-3.023-4.255-3.72-5.659c-1.138-0.164-3.232-0.952-4.132-4.426
	c-0.485-1.872-0.359-3.4,0.373-4.542c0.317-0.495,0.701-0.836,1.061-1.069c0.002-0.363,0.016-0.812,0.057-1.321
	c-0.656-0.931-1.53-2.913-0.435-6.101c1.158-3.375,3.768-3.917,5.053-3.969c0.434-0.806,1.244-1.938,2.699-2.979
	c1.634-1.169,3.768-1.812,6.008-1.812c2.753,0,5.524,0.979,8.011,2.831c4.033,3.003,3.696,9.646,3.597,10.873
	c0.143,0.996,0.184,1.86,0.188,2.479c0.36,0.233,0.743,0.574,1.061,1.069C39.857,18.83,39.982,20.358,39.498,22.23z M31.524,48.801
	c0-5.087,2.625-9.564,6.576-12.128l-4.266-1.724c-0.345-0.139-0.732-0.131-1.071,0.022c-0.339,0.154-0.602,0.44-0.729,0.793
	l-2.854,7.973l-0.521-1.514l0.908-2.241c0.173-0.428,0.124-0.914-0.131-1.298c-0.255-0.384-0.682-0.614-1.139-0.614h-5.642
	c-0.457,0-0.884,0.23-1.139,0.614c-0.255,0.384-0.304,0.87-0.131,1.298l0.908,2.241l-0.521,1.514l-2.854-7.973
	c-0.126-0.353-0.389-0.64-0.729-0.793c-0.339-0.154-0.726-0.162-1.071-0.022L5.57,39.617c-3.566,1.441-5.87,4.88-5.87,8.761v9.42
	c0,0.766,0.614,1.386,1.372,1.386h34.84C33.21,56.56,31.524,52.877,31.524,48.801z M47.156,53.412h0.489
	c0.947,0,1.717-0.778,1.717-1.734c0-0.957-0.77-1.735-1.717-1.735h-0.489V53.412z M41.77,45.435c0,0.957,0.77,1.735,1.716,1.735
	h0.925v-3.469h-0.925C42.54,43.701,41.77,44.478,41.77,45.435z M57.3,48.801c0,6.416-5.166,11.636-11.516,11.636
	c-6.35,0-11.516-5.22-11.516-11.636c0-6.416,5.166-11.636,11.516-11.636C52.134,37.166,57.3,42.385,57.3,48.801z M47.156,47.17
	v-3.469h3.577c0.758,0,1.372-0.62,1.372-1.386c0-0.766-0.614-1.387-1.372-1.387h-3.577v-0.429c0-0.766-0.614-1.386-1.372-1.386
	c-0.758,0-1.372,0.62-1.372,1.386v0.429h-0.925c-2.46,0-4.46,2.022-4.46,4.508c0,2.485,2.001,4.507,4.46,4.507h0.925v3.469h-4.014
	c-0.758,0-1.372,0.62-1.372,1.386c0,0.766,0.614,1.386,1.372,1.386h4.014v0.766c0,0.766,0.614,1.386,1.372,1.386
	c0.758,0,1.372-0.621,1.372-1.386v-0.766h0.489c2.46,0,4.461-2.022,4.461-4.507c0-2.486-2.001-4.508-4.461-4.508H47.156z"/>
</svg>
