<?xml version="1.0" encoding="utf-8"?>
<!-- Generator: Adobe Illustrator 17.0.0, SVG Export Plug-In . SVG Version: 6.00 Build 0)  -->
<!DOCTYPE svg PUBLIC "-//W3C//DTD SVG 1.1//EN" "http://www.w3.org/Graphics/SVG/1.1/DTD/svg11.dtd">
<svg version="1.1" id="Layer_1" xmlns="http://www.w3.org/2000/svg" xmlns:xlink="http://www.w3.org/1999/xlink" x="0px" y="0px"
	 width="80px" height="67px" viewBox="0 0 80 67" enable-background="new 0 0 80 67" xml:space="preserve">
<g>
	<g>
		<path fill="#FFFFFF" d="M45.389,45.995l-0.436-2.281c4.635-2.371,7.89-7.967,7.89-14.496c0-8.676-5.75-15.708-12.844-15.708
			c-7.093,0-12.845,7.032-12.845,15.708c0,6.586,3.316,12.215,8.011,14.551l-0.382,2.008c-3.343,4.4-18.407,4.395-18.407,21.224
			h23.791v0.002h23.453C63.619,50.454,49.057,50.182,45.389,45.995z M56.643,29.217c0,6.173-2.49,11.873-6.566,15.491
			c0.642,0.322,1.359,0.654,2.006,0.952c3.291,1.516,7.852,3.619,11.145,7.832v0.002h16.771c0-16.548-14.564-16.82-18.232-21.008
			l-0.434-2.279c4.633-2.373,7.89-7.969,7.89-14.497c0-8.676-5.75-15.71-12.844-15.71c-5.586,0-10.326,4.369-12.094,10.459
			C51.388,12.675,56.643,20.233,56.643,29.217z M27.909,45.658c0.628-0.288,1.357-0.625,2.011-0.954
			c-4.079-3.612-6.565-9.3-6.565-15.487c0-8.986,5.255-16.545,12.362-18.76c-1.77-6.089-6.51-10.458-12.094-10.458
			c-7.094,0-12.846,7.033-12.846,15.709c0,6.585,3.316,12.214,8.013,14.55l-0.382,2.008c-3.342,4.4-18.407,4.397-18.407,21.226
			h16.768C20.059,49.277,24.621,47.173,27.909,45.658z"/>
	</g>
</g>
</svg>
