<?xml version="1.0" encoding="utf-8"?>
<!-- Generator: Adobe Illustrator 17.0.0, SVG Export Plug-In . SVG Version: 6.00 Build 0)  -->
<!DOCTYPE svg PUBLIC "-//W3C//DTD SVG 1.1//EN" "http://www.w3.org/Graphics/SVG/1.1/DTD/svg11.dtd">
<svg version="1.1" id="Layer_1" xmlns="http://www.w3.org/2000/svg" xmlns:xlink="http://www.w3.org/1999/xlink" x="0px" y="0px"
	 width="26px" height="19px" viewBox="0 0 26 19" enable-background="new 0 0 26 19" xml:space="preserve">
<g>
	<g>
		<path fill="#2A902D" d="M3,2h20v12.999h2V1c0-0.478-0.502-1-1-1H2C1.502,0,1,0.522,1,1v13.999h2V2z M26,16.999H14v1L12,18v-1.001
			H0V18c0,0.478,0.503,1,1,1h24c0.498,0,1-0.522,1-1V16.999z M9.625,6.307C9.52,6.413,9.488,6.571,9.543,6.708l2.806,7.047
			c0.053,0.132,0.176,0.223,0.319,0.233c0.142,0.01,0.277-0.062,0.348-0.185l0.911-1.58l2.211,2.216
			c0.07,0.069,0.164,0.109,0.263,0.109s0.193-0.039,0.263-0.109l1.079-1.081c0.145-0.146,0.145-0.381,0-0.527l-2.211-2.214
			l1.578-0.913c0.123-0.071,0.195-0.207,0.185-0.349s-0.101-0.266-0.233-0.319l-7.035-2.811C9.888,6.17,9.731,6.203,9.625,6.307z
			 M9.198,5.353L8.372,4.526c-0.145-0.145-0.38-0.145-0.526,0c-0.145,0.145-0.145,0.381,0,0.526l0.826,0.827
			C8.744,5.952,8.84,5.988,8.935,5.988s0.19-0.036,0.263-0.109C9.343,5.734,9.343,5.498,9.198,5.353z M8.652,7.099
			c0-0.206-0.166-0.372-0.372-0.372H7.112c-0.205,0-0.372,0.166-0.372,0.372c0,0.206,0.167,0.372,0.372,0.372H8.28
			C8.485,7.471,8.652,7.304,8.652,7.099z M7.938,9.71c0.095,0,0.19-0.036,0.263-0.109l0.826-0.827c0.145-0.145,0.145-0.381,0-0.526
			c-0.145-0.146-0.38-0.146-0.526,0L7.675,9.074C7.53,9.219,7.53,9.455,7.675,9.6C7.748,9.673,7.843,9.71,7.938,9.71z M10.787,4.96
			V3.791c0-0.206-0.166-0.372-0.372-0.372s-0.372,0.166-0.372,0.372v1.17c0,0.205,0.166,0.372,0.372,0.372S10.787,5.165,10.787,4.96
			z M12.087,5.708l0.826-0.827c0.145-0.146,0.145-0.381,0-0.527c-0.145-0.145-0.381-0.145-0.525,0l-0.826,0.827
			c-0.145,0.145-0.145,0.381,0,0.526c0.073,0.073,0.167,0.109,0.263,0.109S12.015,5.781,12.087,5.708z"/>
	</g>
</g>
</svg>
