<?xml version="1.0" encoding="utf-8"?>
<!-- Generator: Adobe Illustrator 17.0.0, SVG Export Plug-In . SVG Version: 6.00 Build 0)  -->
<!DOCTYPE svg PUBLIC "-//W3C//DTD SVG 1.1//EN" "http://www.w3.org/Graphics/SVG/1.1/DTD/svg11.dtd">
<svg version="1.1" id="Layer_1" xmlns="http://www.w3.org/2000/svg" xmlns:xlink="http://www.w3.org/1999/xlink" x="0px" y="0px"
	 width="59px" height="57px" viewBox="0 0 59 57" enable-background="new 0 0 59 57" xml:space="preserve">
<g>
	<g>
		<path fill="#FFFFFF" d="M55.363,35.326c-1.029,0-1.989,0.413-2.676,1.239c-1.097-1.858-3.567-2.34-5.282-1.033
			c-1.235-2.202-3.293-1.858-5.282-1.101l-4.802,1.858c1.51,0.964,2.538,2.615,2.538,4.543c0,2.959-2.401,5.299-5.282,5.299H24.423
			c-1.304,0-2.401-0.276-3.567-0.826l-2.195-1.032h15.916c1.921,0,3.43-1.583,3.43-3.44c0-1.927-1.578-3.441-3.43-3.441
			l-15.641-0.688c-2.127-1.101-4.528-1.72-6.929-1.72c-1.646,0-3.293,0.275-4.802,0.826l-7.203,2.478v17.067l4.802-1.927
			c1.715-0.688,3.293-0.757,5.077-0.413l17.631,3.785c2.333,0.482,4.459,0.069,6.518-1.17L57.079,42.14
			c1.166-0.688,1.921-1.858,1.921-3.166C58.999,36.978,57.353,35.326,55.363,35.326z M26.227,32.39
			c9.05,0,16.387-7.249,16.387-16.192c0-8.943-7.337-16.192-16.387-16.192c-9.051,0-16.387,7.249-16.387,16.192
			C9.84,25.14,17.177,32.39,26.227,32.39z M28.438,23.568c0,0.083-0.042,0.16-0.128,0.228c-0.086,0.069-0.181,0.102-0.288,0.102
			h-1.33c-0.106,0-0.195-0.033-0.265-0.102c-0.069-0.068-0.104-0.145-0.104-0.228v-1.521c0-0.105,0.035-0.193,0.104-0.261
			c0.07-0.069,0.158-0.104,0.265-0.104h1.33c0.107,0,0.202,0.034,0.288,0.104c0.086,0.068,0.128,0.155,0.128,0.261V23.568z
			 M31.594,23.568c0,0.083-0.039,0.16-0.112,0.228c-0.075,0.069-0.166,0.102-0.272,0.102h-1.33c-0.107,0-0.201-0.033-0.281-0.102
			c-0.081-0.068-0.12-0.145-0.12-0.228v-1.521c0-0.105,0.039-0.193,0.12-0.261c0.08-0.069,0.174-0.104,0.281-0.104h1.33
			c0.106,0,0.197,0.034,0.272,0.104c0.074,0.068,0.112,0.155,0.112,0.261V23.568z M34.469,22.334c0-0.191,0.102-0.287,0.305-0.287
			h0.144c0.181,0,0.347-0.008,0.497-0.025c0.15-0.016,0.278-0.06,0.385-0.133c0.106-0.074,0.19-0.187,0.249-0.339
			c0.058-0.153,0.087-0.361,0.087-0.625v-7.331c0-0.084,0.033-0.154,0.097-0.213c0.063-0.057,0.144-0.087,0.241-0.087h1.81
			c0.086,0,0.16,0.03,0.224,0.087c0.064,0.059,0.097,0.13,0.097,0.214v6.902c0,0.443-0.016,0.857-0.049,1.242
			c-0.032,0.386-0.134,0.757-0.303,1.116c-0.268,0.518-0.633,0.868-1.099,1.054c-0.463,0.184-0.995,0.276-1.593,0.276
			c-0.086,0-0.21-0.005-0.376-0.015c-0.167-0.011-0.318-0.026-0.457-0.048c-0.172-0.032-0.257-0.139-0.257-0.319V22.334z
			 M25.146,8.544c0-0.094,0.031-0.173,0.096-0.236c0.064-0.064,0.145-0.096,0.24-0.096h1.826c0.107,0,0.19,0.032,0.249,0.096
			c0.059,0.063,0.088,0.142,0.088,0.236v8.643c0,0.306,0.064,0.502,0.191,0.586c0.13,0.084,0.332,0.126,0.611,0.126h1.394
			c0.235,0,0.393-0.021,0.473-0.063c0.08-0.041,0.12-0.184,0.12-0.426v-1.774c0-0.675-0.011-1.376-0.032-2.106
			c0-0.083,0.029-0.154,0.088-0.214c0.058-0.056,0.135-0.086,0.232-0.086h1.761c0.117,0,0.206,0.03,0.265,0.086
			c0.058,0.06,0.094,0.131,0.104,0.214c0.011,0.329,0.019,0.626,0.024,0.896c0.006,0.269,0.011,0.522,0.017,0.758
			c0.005,0.238,0.007,0.475,0.007,0.713v0.751c0,0.781-0.006,1.412-0.017,1.892c-0.011,0.48-0.031,0.873-0.063,1.179
			c-0.021,0.105-0.056,0.196-0.105,0.269c-0.047,0.074-0.135,0.133-0.264,0.176c-0.128,0.031-0.308,0.059-0.537,0.086
			c-0.23,0.026-0.48,0.048-0.753,0.063c-0.272,0.016-0.554,0.027-0.84,0.032c-0.289,0.005-0.55,0.007-0.786,0.007h-1.826
			c-0.384,0-0.735-0.029-1.049-0.087c-0.316-0.057-0.584-0.171-0.81-0.339c-0.224-0.17-0.397-0.41-0.52-0.72
			c-0.122-0.312-0.184-0.72-0.184-1.228V8.544z M13.852,18.074c0-0.127,0.005-0.29,0.016-0.49c0.011-0.201,0.024-0.413,0.04-0.635
			c0.017-0.221,0.038-0.442,0.065-0.665c0.027-0.221,0.056-0.411,0.088-0.569c0.021-0.095,0.052-0.169,0.096-0.222
			c0.044-0.052,0.117-0.079,0.224-0.079h1.586c0.193,0,0.289,0.105,0.289,0.317c-0.022,0.212-0.035,0.422-0.04,0.633
			c-0.006,0.212-0.009,0.391-0.009,0.539c0,0.611,0.041,1.157,0.121,1.638c0.079,0.48,0.232,0.886,0.456,1.219
			c0.225,0.333,0.534,0.586,0.929,0.76c0.394,0.174,0.913,0.26,1.554,0.26c0.15,0,0.324-0.006,0.521-0.015
			c0.197-0.011,0.371-0.032,0.521-0.063c0.021-0.486,0.031-0.921,0.031-1.307V8.544c0-0.094,0.035-0.173,0.104-0.236
			c0.07-0.064,0.147-0.096,0.233-0.096h1.841c0.086,0,0.161,0.032,0.225,0.096c0.064,0.063,0.096,0.142,0.096,0.236v10.861
			c0,0.158-0.004,0.381-0.008,0.671c-0.006,0.291-0.013,0.589-0.024,0.896c-0.011,0.304-0.022,0.601-0.033,0.885
			c-0.011,0.286-0.022,0.507-0.031,0.665c-0.011,0.18-0.129,0.302-0.352,0.364c-0.45,0.105-0.956,0.187-1.523,0.245
			c-0.566,0.057-1.099,0.087-1.601,0.087c-0.864,0-1.632-0.095-2.299-0.284c-0.667-0.191-1.232-0.491-1.697-0.903
			c-0.464-0.411-0.817-0.942-1.058-1.591C13.973,19.792,13.852,19.003,13.852,18.074z"/>
	</g>
</g>
</svg>
