<?xml version="1.0" encoding="utf-8"?>
<!-- Generator: Adobe Illustrator 17.0.0, SVG Export Plug-In . SVG Version: 6.00 Build 0)  -->
<!DOCTYPE svg PUBLIC "-//W3C//DTD SVG 1.1//EN" "http://www.w3.org/Graphics/SVG/1.1/DTD/svg11.dtd">
<svg version="1.1" id="Layer_1" xmlns="http://www.w3.org/2000/svg" xmlns:xlink="http://www.w3.org/1999/xlink" x="0px" y="0px"
	 width="27px" height="23px" viewBox="0 0 27 23" enable-background="new 0 0 27 23" xml:space="preserve">
<g>
	<g>
		<path fill="#2A902D" d="M24,21V2l2,0.001v-2L1,0v2h2v19H0v2h27v-2H24z M22,21h-7v-3c0-0.773-0.861-1.677-1.667-1.677
			c-0.805,0-1.3,0.929-1.238,1.42L12,18v3H5V2h17V21z M20,14.001h-3v3h3V14.001z M20,9.001h-3v3h3V9.001z M20,4.001h-3v3h3V4.001z
			 M15,9.001h-3v3h3V9.001z M15,4.001h-3v3h3V4.001z M10,14.001H7v3h3V14.001z M10,9.001H7v3h3V9.001z M10,4.001H7v3h3V4.001z"/>
	</g>
</g>
</svg>
