<?xml version="1.0" encoding="utf-8"?>
<!-- Generator: Adobe Illustrator 17.0.0, SVG Export Plug-In . SVG Version: 6.00 Build 0)  -->
<!DOCTYPE svg PUBLIC "-//W3C//DTD SVG 1.1//EN" "http://www.w3.org/Graphics/SVG/1.1/DTD/svg11.dtd">
<svg version="1.1" id="Layer_1" xmlns="http://www.w3.org/2000/svg" xmlns:xlink="http://www.w3.org/1999/xlink" x="0px" y="0px"
	 width="48px" height="60px" viewBox="0 0 48 60" enable-background="new 0 0 48 60" xml:space="preserve">
<path fill="#FFFFFF" d="M43.344,56.061V1.969C43.344,0.853,42.492,0,41.377,0H7.738C6.623,0,5.771,0.853,5.771,1.969v54.092H0V60h48
	v-3.939H43.344z M12.262,8.468c0-1.116,0.852-1.969,1.967-1.969h6.492c1.115,0,1.967,0.853,1.967,1.969v6.499
	c0,1.116-0.852,1.969-1.967,1.969H14.23c-1.115,0-1.967-0.854-1.967-1.969V8.468z M12.262,21.597c0-1.116,0.852-1.969,1.967-1.969
	h6.492c1.115,0,1.967,0.853,1.967,1.969v6.499c0,1.116-0.852,1.969-1.967,1.969H14.23c-1.115,0-1.967-0.853-1.967-1.969V21.597z
	 M12.262,41.225v-6.499c0-1.116,0.852-1.97,1.967-1.97h6.492c1.115,0,1.967,0.854,1.967,1.97v6.499c0,1.116-0.852,1.97-1.967,1.97
	H14.23C13.18,43.195,12.328,42.341,12.262,41.225z M29.64,56.061H18.885v-6.368H29.64V56.061z M36.262,41.291
	c0,1.116-0.852,1.969-1.967,1.969h-6.492c-1.115,0-1.967-0.853-1.967-1.969v-6.564c0-1.116,0.852-1.97,1.967-1.97h6.492
	c1.115,0,1.967,0.854,1.967,1.97V41.291L36.262,41.291z M36.262,28.162c0,1.116-0.852,1.97-1.967,1.97h-6.492
	c-1.115,0-1.967-0.853-1.967-1.97v-6.564c0-1.116,0.852-1.969,1.967-1.969h6.492c1.115,0,1.967,0.853,1.967,1.969V28.162
	L36.262,28.162z M36.262,15.033c0,1.116-0.852,1.969-1.967,1.969h-6.492c-1.115,0-1.967-0.853-1.967-1.969V8.468
	c0-1.116,0.852-1.969,1.967-1.969h6.492c1.115,0,1.967,0.853,1.967,1.969V15.033L36.262,15.033z"/>
</svg>
