<?xml version="1.0" encoding="utf-8"?>
<!-- Generator: Adobe Illustrator 17.0.0, SVG Export Plug-In . SVG Version: 6.00 Build 0)  -->
<!DOCTYPE svg PUBLIC "-//W3C//DTD SVG 1.1//EN" "http://www.w3.org/Graphics/SVG/1.1/DTD/svg11.dtd">
<svg version="1.1" id="Layer_1" xmlns="http://www.w3.org/2000/svg" xmlns:xlink="http://www.w3.org/1999/xlink" x="0px" y="0px"
	 width="50px" height="60px" viewBox="0 0 50 60" enable-background="new 0 0 50 60" xml:space="preserve">
<path fill="#FFFFFF" d="M47.563,55.278h-2.439v-9.445l0,0V35.556l0,0v-10c0-1.25-1.084-2.361-2.304-2.361h-4.743
	c-1.084-5.139-5.421-9.028-10.977-10v-1.806h7.724c1.22,0,2.304-0.972,2.304-2.361V3.889c0-1.25-1.084-2.361-2.304-2.361h-7.86
	C26.694,0.695,25.881,0,24.797,0c-1.22,0-2.304,1.111-2.304,2.361v10.834c-5.556,0.833-10.029,4.861-10.977,10H6.773
	c-1.22,0-2.304,1.111-2.304,2.361v10l0,0v10.277l0,0v9.445H2.301c-1.22,0-2.304,0.972-2.304,2.361c0,1.389,1.084,2.361,2.304,2.361
	h45.398c1.22,0,2.304-1.111,2.304-2.361C50.003,56.389,48.919,55.278,47.563,55.278z M21.273,27.917h7.318v5.278h-7.318V27.917z
	 M21.273,48.195h7.318v5.278h-7.318V48.195z M33.063,48.195h7.454v5.278h-7.454V48.195z M40.652,43.472h-7.589v-5.694h7.454v5.694
	H40.652z M28.591,37.778v5.694h-7.318v-5.694H28.591z M16.801,43.472H9.348v-5.694h7.453V43.472z M9.212,48.195h7.589v5.278H9.348
	v-5.278H9.212z M40.652,33.194h-7.589v-5.278h7.454v5.278H40.652z M9.212,27.917h7.589v5.278H9.348v-5.278H9.212z"/>
</svg>
